<?xml version="1.0" encoding="utf-8"?>
<!-- Generator: Adobe Illustrator 16.0.0, SVG Export Plug-In . SVG Version: 6.00 Build 0)  -->
<!DOCTYPE svg PUBLIC "-//W3C//DTD SVG 1.1//EN" "http://www.w3.org/Graphics/SVG/1.1/DTD/svg11.dtd">
<svg version="1.1" xmlns="http://www.w3.org/2000/svg" xmlns:xlink="http://www.w3.org/1999/xlink" x="0px" y="0px"
	 width="33.667px" height="34.083px" viewBox="-8.833 -9.083 33.667 34.083" enable-background="new -8.833 -9.083 33.667 34.083"
	 xml:space="preserve">
<g id="Layer_2" display="none">
	<g id="TXP8f6_1_" display="inline">
		
			<image overflow="visible" width="21" height="21" id="TXP8f6" xlink:href="4516646AD697BCD5.jpg"  transform="matrix(1 0 0 1 -2.5 -2.5415)">
		</image>
	</g>
</g>
<g id="Layer_1">
	<g id="G8PvGh_1_" display="none">
		
			<image display="inline" overflow="visible" enable-background="new    " width="6" height="6" id="G8PvGh_2_" xlink:href="4516646AD697BCD3.jpeg"  transform="matrix(2.6667 0 0 2.6667 -26.666 0)">
		</image>
	</g>
</g>
<g id="Layer_3">
	<title>Layer 1</title>
	<path d="M7.751,13.621L2.535,7.274l4.506,2.688c2.701-3.625,5.701-6.733,8.643-9.039c-1.912-2.087-4.65-3.403-7.704-3.403
		c-5.777,0-10.458,4.682-10.458,10.458c0,5.775,4.682,10.458,10.458,10.458c5.775,0,10.458-4.683,10.458-10.458
		c0-2.432-0.837-4.664-2.229-6.44C12.583,5.338,9.978,9.34,7.751,13.621z"/>
</g>
</svg>
