<?xml version="1.0" encoding="utf-8"?>
<!-- Generator: Adobe Illustrator 16.0.0, SVG Export Plug-In . SVG Version: 6.00 Build 0)  -->
<!DOCTYPE svg PUBLIC "-//W3C//DTD SVG 1.1//EN" "http://www.w3.org/Graphics/SVG/1.1/DTD/svg11.dtd">
<svg version="1.1" xmlns="http://www.w3.org/2000/svg" xmlns:xlink="http://www.w3.org/1999/xlink" x="0px" y="0px" width="50px"
	 height="50px" viewBox="0 0 50 50" enable-background="new 0 0 50 50" xml:space="preserve">
<g id="Layer_1" display="none">
	<g id="uGZT2h_1_" display="inline">
		
			<image overflow="visible" width="19" height="18" id="uGZT2h" xlink:href="5C6EF8DD4324A49D.jpg"  transform="matrix(1 0 0 1 15.5 16)">
		</image>
	</g>
</g>
<g id="Layer_3" display="none">
	<path display="inline" opacity="0.2" fill="#010101" d="M23.908,30.643l-5.216-6.347l4.506,2.689
		c2.701-3.625,5.701-6.734,8.643-9.039c-1.912-2.088-4.65-3.404-7.704-3.404c-5.777,0-10.459,4.682-10.459,10.459
		c0,5.775,4.682,10.458,10.459,10.458c5.775,0,10.458-4.684,10.458-10.458c0-2.432-0.837-4.664-2.229-6.44
		C28.74,22.359,26.135,26.361,23.908,30.643z"/>
</g>
<g id="Layer_2">
	<g>
		<title>Layer 1</title>
		<g id="layer1">
			<g id="layer1-2" transform="matrix(0.480185, 0, 0, 0.480185, -316.231, 468.11)">
				<path id="path4068" d="M696.726-927.815l14.647,16.998c7.46-15.211,16.599-29.205,31.283-42.493
					c-10.99,6.202-23.105,17.976-33.451,32.549L696.726-927.815z"/>
			</g>
		</g>
	</g>
	<path d="M24.086,14.802c-5.746,0-10.404,4.658-10.404,10.403c0,5.747,4.658,10.403,10.404,10.403
		c5.745,0,10.402-4.656,10.402-10.403C34.488,19.459,29.831,14.802,24.086,14.802z M24.136,33.301c-4.471,0-8.096-3.625-8.096-8.096
		s3.625-8.096,8.096-8.096c4.471,0,8.097,3.625,8.097,8.096S28.606,33.301,24.136,33.301z"/>
</g>
</svg>
